<?xml version="1.0" encoding="UTF-8" standalone="no"?>
<svg version="1.1" xmlns="http://www.w3.org/2000/svg" width="456" height="456">
    <path d="M0 0 C11.3065128 10.72761934 19.32002008 25.54748239 19.98828125 41.30078125 C20.0076974 42.86707203 20.01127001 44.43362942 20 46 C19.99436035 46.82959229 19.9887207 47.65918457 19.98291016 48.51391602 C19.62675097 66.63748177 11.48618252 81.28198035 -1.3125 93.8125 C-14.59972842 105.04852677 -31.32213991 109.82605946 -48.51464844 108.46557617 C-65.1239272 106.69127298 -79.01793065 98.85637251 -90.3125 86.6875 C-102.2803073 71.2583042 -106.27256721 53.60091691 -103.91796875 34.484375 C-100.3683122 17.72083567 -90.67020859 3.1200988 -76.375 -6.25 C-51.71255698 -21.56779292 -21.99131037 -18.80223817 0 0 Z " fill="#0E66D4" transform="translate(187.3125,181.3125)"/>
    <path d="M0 0 C11.49441797 9.87924055 20.43022951 24.36071129 22.05078125 39.7109375 C23.11211113 58.7011614 18.98430358 75.8761394 6.42578125 90.6484375 C-4.9362649 102.23737551 -19.71914879 109.46099135 -35.94921875 110.7109375 C-54.8397574 110.88301731 -70.83658984 105.20104337 -84.69921875 92.09375 C-97.08328154 78.9786835 -102.49619577 63.52885562 -102.29614258 45.71020508 C-101.79526631 28.99491568 -94.75996467 14.12904293 -82.9375 2.37109375 C-59.54588569 -19.31140228 -24.6123109 -19.10306515 0 0 Z " fill="#FF0683" transform="translate(349.94921875,179.2890625)"/>
</svg>